<svg fill="#ffffff" version="1.1" id="Layer_1" xmlns="http://www.w3.org/2000/svg" xmlns:xlink="http://www.w3.org/1999/xlink" viewBox="0 0 490 490" xml:space="preserve" width="100px" height="100px" stroke="#ffffff"><g id="SVGRepo_bgCarrier" stroke-width="0"></g><g id="SVGRepo_tracerCarrier" stroke-linecap="round" stroke-linejoin="round"></g><g id="SVGRepo_iconCarrier"> <g> <g> <g> <path d="M424.976,95c-0.001-2.601-0.992-5.159-2.904-7.071l-85-85c-1.912-1.912-4.47-2.904-7.071-2.905V0H75 c-5.523,0-10,4.477-10,10v470c0,5.523,4.477,10,10,10h340c5.522,0,10-4.477,10-10V95H424.976z M340,34.142L390.857,85H340V34.142 z M405,470H85V20h235v75c0,5.523,4.478,10,10,10h75V470z"></path> <path d="M259.097,295l22.445,51.624l18.342-7.975l-70.713-162.637c-1.613-3.71-5.257-6.054-9.345-6.011 c-4.044,0.07-7.648,2.57-9.13,6.333l-65,165l18.608,7.33L185.445,295H259.097z M220.456,206.127L250.4,275h-57.077 L220.456,206.127z"></path> <polygon points="315,165 295,165 295,185 275,185 275,205 295,205 295,225 315,225 315,205 335,205 335,185 315,185 "></polygon> <rect x="110" y="410" width="40" height="20"></rect> <rect x="170" y="410" width="40" height="20"></rect> <rect x="230" y="410" width="150" height="20"></rect> <rect x="110" y="40" width="40" height="20"></rect> <rect x="110" y="80" width="80" height="20"></rect> </g> </g> </g> </g></svg>
