<!DOCTYPE svg PUBLIC "-//W3C//DTD SVG 1.1//EN" "http://www.w3.org/Graphics/SVG/1.1/DTD/svg11.dtd">
<!-- Uploaded to: SVG Repo, www.svgrepo.com, Transformed by: SVG Repo Mixer Tools -->
<svg fill="#ffffff" version="1.1" id="Layer_1" xmlns="http://www.w3.org/2000/svg" xmlns:xlink="http://www.w3.org/1999/xlink" viewBox="0 0 490 490" xml:space="preserve" width="800px" height="800px" stroke="#ffffff">
<g id="SVGRepo_bgCarrier" stroke-width="0"/>
<g id="SVGRepo_tracerCarrier" stroke-linecap="round" stroke-linejoin="round"/>
<g id="SVGRepo_iconCarrier"> <g> <g> <g> <path d="M447.5,205h-55V95h-0.024c-0.001-2.601-0.993-5.159-2.905-7.071l-85-85c-1.913-1.912-4.47-2.904-7.071-2.905V0h-255 c-5.523,0-10,4.477-10,10v470c0,5.523,4.477,10,10,10h340c5.523,0,10-4.477,10-10V285h55c5.523,0,10-4.477,10-10v-60 C457.5,209.477,453.023,205,447.5,205z M307.5,34.142L358.358,85H307.5V34.142z M372.501,470H372.5h-320V20h235v75 c0,5.523,4.477,10,10,10h75v100h-210v0.018c-1.529,0-3.061,0.332-4.472,1.038l-60,30C94.64,237.75,92.5,241.212,92.5,245 c0,3.788,2.14,7.251,5.528,8.944l60,30c1.412,0.706,2.943,1.056,4.472,1.056h0.001h210V470z M152.5,231.18v27.64L124.861,245 L152.5,231.18z M392.5,265h-220v-10h220V265z M392.5,235h-220v-10h220V235z M437.5,265h-25v-40h25V265z"/> <rect x="82.5" y="55" width="60" height="20"/> <rect x="82.5" y="95" width="130" height="20"/> </g> </g> </g> </g>
</svg>